<svg xmlns="http://www.w3.org/2000/svg" xmlns:xlink="http://www.w3.org/1999/xlink" contentStyleType="text/css" height="1235px" preserveAspectRatio="none" style="width:2486px;height:1235px;background:#FFFFFF;" version="1.1" viewBox="0 0 2486 1235" width="2486px" zoomAndPan="magnify"><defs/><g><!--class src.bootflow.boot_event.BootEvent--><g id="elem_src.bootflow.boot_event.BootEvent"><rect codeLine="2" fill="#F1F1F1" height="162.0781" id="src.bootflow.boot_event.BootEvent" rx="2.5" ry="2.5" style="stroke:#181818;stroke-width:0.5;" width="265.3809" x="743" y="1066.76"/><ellipse cx="835.2749" cy="1082.76" fill="#ADD1B2" rx="11" ry="11" style="stroke:#181818;stroke-width:1.0;"/><path d="M838.2437,1088.4006 Q837.6655,1088.6975 837.0249,1088.8381 Q836.3843,1088.9944 835.6812,1088.9944 Q833.1812,1088.9944 831.853,1087.3538 Q830.5405,1085.6975 830.5405,1082.5725 Q830.5405,1079.4475 831.853,1077.7913 Q833.1812,1076.135 835.6812,1076.135 Q836.3843,1076.135 837.0249,1076.2913 Q837.6812,1076.4475 838.2437,1076.7444 L838.2437,1079.4631 Q837.6187,1078.885 837.0249,1078.6194 Q836.4312,1078.3381 835.8062,1078.3381 Q834.4624,1078.3381 833.7749,1079.4163 Q833.0874,1080.4788 833.0874,1082.5725 Q833.0874,1084.6663 833.7749,1085.7444 Q834.4624,1086.8069 835.8062,1086.8069 Q836.4312,1086.8069 837.0249,1086.5413 Q837.6187,1086.26 838.2437,1085.6819 L838.2437,1088.4006 Z " fill="#000000"/><text fill="#000000" font-family="sans-serif" font-size="14" lengthAdjust="spacing" textLength="72.3311" x="855.7749" y="1087.6067">BootEvent</text><line style="stroke:#181818;stroke-width:0.5;" x1="744" x2="1007.3809" y1="1098.76" y2="1098.76"/><text fill="#000000" font-family="sans-serif" font-size="14" lengthAdjust="spacing" textLength="98.6699" x="749" y="1115.7551">comment : str</text><text fill="#000000" font-family="sans-serif" font-size="14" lengthAdjust="spacing" textLength="125.4463" x="749" y="1132.052">group : NoneType</text><text fill="#000000" font-family="sans-serif" font-size="14" lengthAdjust="spacing" textLength="71.8594" x="749" y="1148.3489">name : str</text><text fill="#000000" font-family="sans-serif" font-size="14" lengthAdjust="spacing" textLength="68.4277" x="749" y="1164.6457">processor</text><line style="stroke:#181818;stroke-width:0.5;" x1="744" x2="1007.3809" y1="1171.9475" y2="1171.9475"/><text fill="#000000" font-family="sans-serif" font-size="14" lengthAdjust="spacing" textLength="242.2383" x="749" y="1188.9426">change_processor(new_processor)</text><text fill="#000000" font-family="sans-serif" font-size="14" lengthAdjust="spacing" textLength="253.3809" x="749" y="1205.2395">check_variable_syntax(variable: str)</text><text fill="#000000" font-family="sans-serif" font-size="14" lengthAdjust="spacing" textLength="66.3359" x="749" y="1221.5364">cleanup()</text></g><!--class src.bootflow.boot_flow.BootFlow--><g id="elem_src.bootflow.boot_flow.BootFlow"><rect codeLine="11" fill="#F1F1F1" height="439.125" id="src.bootflow.boot_flow.BootFlow" rx="2.5" ry="2.5" style="stroke:#181818;stroke-width:0.5;" width="455.2627" x="1590.05" y="311.26"/><ellipse cx="1781.34" cy="327.26" fill="#ADD1B2" rx="11" ry="11" style="stroke:#181818;stroke-width:1.0;"/><path d="M1784.3088,332.9006 Q1783.7307,333.1975 1783.09,333.3381 Q1782.4494,333.4944 1781.7463,333.4944 Q1779.2463,333.4944 1777.9182,331.8537 Q1776.6057,330.1975 1776.6057,327.0725 Q1776.6057,323.9475 1777.9182,322.2912 Q1779.2463,320.635 1781.7463,320.635 Q1782.4494,320.635 1783.09,320.7912 Q1783.7463,320.9475 1784.3088,321.2444 L1784.3088,323.9631 Q1783.6838,323.385 1783.09,323.1194 Q1782.4963,322.8381 1781.8713,322.8381 Q1780.5275,322.8381 1779.84,323.9162 Q1779.1525,324.9787 1779.1525,327.0725 Q1779.1525,329.1662 1779.84,330.2444 Q1780.5275,331.3069 1781.8713,331.3069 Q1782.4963,331.3069 1783.09,331.0412 Q1783.6838,330.76 1784.3088,330.1819 L1784.3088,332.9006 Z " fill="#000000"/><text fill="#000000" font-family="sans-serif" font-size="14" lengthAdjust="spacing" textLength="64.1826" x="1801.84" y="332.1067">BootFlow</text><line style="stroke:#181818;stroke-width:0.5;" x1="1591.05" x2="2044.3127" y1="343.26" y2="343.26"/><text fill="#000000" font-family="sans-serif" font-size="14" lengthAdjust="spacing" textLength="171.0283" x="1596.05" y="360.2551">groups : Dict[str, Group]</text><text fill="#000000" font-family="sans-serif" font-size="14" lengthAdjust="spacing" textLength="181.4258" x="1596.05" y="376.552">interfaces : List[Interface]</text><text fill="#000000" font-family="sans-serif" font-size="14" lengthAdjust="spacing" textLength="358.9209" x="1596.05" y="392.8489">main_processor : Optional[Union[Processor, None]]</text><text fill="#000000" font-family="sans-serif" font-size="14" lengthAdjust="spacing" textLength="192.7188" x="1596.05" y="409.1457">processors : List[Processor]</text><text fill="#000000" font-family="sans-serif" font-size="14" lengthAdjust="spacing" textLength="202.7813" x="1596.05" y="425.4426">software : Dict[str, Software]</text><text fill="#000000" font-family="sans-serif" font-size="14" lengthAdjust="spacing" textLength="184.748" x="1596.05" y="441.7395">triggers : Dict[str, Trigger]</text><text fill="#000000" font-family="sans-serif" font-size="14" lengthAdjust="spacing" textLength="175.0615" x="1596.05" y="458.0364">variables : Dict[str, float]</text><line style="stroke:#181818;stroke-width:0.5;" x1="1591.05" x2="2044.3127" y1="465.3381" y2="465.3381"/><text fill="#000000" font-family="sans-serif" font-size="14" lengthAdjust="spacing" textLength="178.3086" x="1596.05" y="482.3332">add_group(group: Group)</text><text fill="#000000" font-family="sans-serif" font-size="14" lengthAdjust="spacing" textLength="241.001" x="1596.05" y="498.6301">add_interface(interface: Interface)</text><text fill="#000000" font-family="sans-serif" font-size="14" lengthAdjust="spacing" textLength="258.2822" x="1596.05" y="514.927">add_processor(processor: Processor)</text><text fill="#000000" font-family="sans-serif" font-size="14" lengthAdjust="spacing" textLength="237.0635" x="1596.05" y="531.2239">add_software(software: Software)</text><text fill="#000000" font-family="sans-serif" font-size="14" lengthAdjust="spacing" textLength="217.4717" x="1596.05" y="547.5207">del_event_by_name(name: str)</text><text fill="#000000" font-family="sans-serif" font-size="14" lengthAdjust="spacing" textLength="218.5654" x="1596.05" y="563.8176">del_group_by_name(name: str)</text><text fill="#000000" font-family="sans-serif" font-size="14" lengthAdjust="spacing" textLength="169.1621" x="1596.05" y="580.1145">del_interface(name: str)</text><text fill="#000000" font-family="sans-serif" font-size="14" lengthAdjust="spacing" textLength="167.3984" x="1596.05" y="596.4114">del_software(name: str)</text><text fill="#000000" font-family="sans-serif" font-size="14" lengthAdjust="spacing" textLength="108.3086" x="1596.05" y="612.7082">from_dict(data)</text><text fill="#000000" font-family="sans-serif" font-size="14" lengthAdjust="spacing" textLength="413.8818" x="1596.05" y="629.0051">get_event_by_name(name: str) -&gt; Union[BootEvent, None]</text><text fill="#000000" font-family="sans-serif" font-size="14" lengthAdjust="spacing" textLength="419.959" x="1596.05" y="645.302">get_interface(interfaceName: str) -&gt; Union[Interface, None]</text><text fill="#000000" font-family="sans-serif" font-size="14" lengthAdjust="spacing" textLength="442.6406" x="1596.05" y="661.5989">get_processor(processor_name: str) -&gt; Union[Processor, None]</text><text fill="#000000" font-family="sans-serif" font-size="14" lengthAdjust="spacing" textLength="443.2627" x="1596.05" y="677.8957">move_element(index: int, new_index: int, processor_name: str)</text><text fill="#000000" font-family="sans-serif" font-size="14" lengthAdjust="spacing" textLength="383.1885" x="1596.05" y="694.1926">remove_item(item, processor_name: Union[str, None])</text><text fill="#000000" font-family="sans-serif" font-size="14" lengthAdjust="spacing" textLength="295.3057" x="1596.05" y="710.4895">set_main_processor(processor: Processor)</text><text fill="#000000" font-family="sans-serif" font-size="14" lengthAdjust="spacing" textLength="111.4805" x="1596.05" y="726.7864">to_dict() -&gt; Dict</text><text fill="#000000" font-family="sans-serif" font-size="14" lengthAdjust="spacing" textLength="126.1641" x="1596.05" y="743.0832">update_duration()</text></g><!--class src.bootflow.group.Group--><g id="elem_src.bootflow.group.Group"><rect codeLine="37" fill="#F1F1F1" height="145.7813" id="src.bootflow.group.Group" rx="2.5" ry="2.5" style="stroke:#181818;stroke-width:0.5;" width="230.6064" x="2004.38" y="47.74"/><ellipse cx="2093.9684" cy="63.74" fill="#ADD1B2" rx="11" ry="11" style="stroke:#181818;stroke-width:1.0;"/><path d="M2096.9371,69.3806 Q2096.359,69.6775 2095.7184,69.8181 Q2095.0778,69.9744 2094.3746,69.9744 Q2091.8746,69.9744 2090.5465,68.3338 Q2089.234,66.6775 2089.234,63.5525 Q2089.234,60.4275 2090.5465,58.7713 Q2091.8746,57.115 2094.3746,57.115 Q2095.0778,57.115 2095.7184,57.2713 Q2096.3746,57.4275 2096.9371,57.7244 L2096.9371,60.4431 Q2096.3121,59.865 2095.7184,59.5994 Q2095.1246,59.3181 2094.4996,59.3181 Q2093.1559,59.3181 2092.4684,60.3963 Q2091.7809,61.4588 2091.7809,63.5525 Q2091.7809,65.6463 2092.4684,66.7244 Q2093.1559,67.7869 2094.4996,67.7869 Q2095.1246,67.7869 2095.7184,67.5213 Q2096.3121,67.24 2096.9371,66.6619 L2096.9371,69.3806 Z " fill="#000000"/><text fill="#000000" font-family="sans-serif" font-size="14" lengthAdjust="spacing" textLength="42.9297" x="2114.4684" y="68.5867">Group</text><line style="stroke:#181818;stroke-width:0.5;" x1="2005.38" x2="2233.9864" y1="79.74" y2="79.74"/><text fill="#000000" font-family="sans-serif" font-size="14" lengthAdjust="spacing" textLength="218.6064" x="2010.38" y="96.7351">members : Dict[str, BootEvent]</text><text fill="#000000" font-family="sans-serif" font-size="14" lengthAdjust="spacing" textLength="39.7031" x="2010.38" y="113.032">name</text><line style="stroke:#181818;stroke-width:0.5;" x1="2005.38" x2="2233.9864" y1="120.3338" y2="120.3338"/><text fill="#000000" font-family="sans-serif" font-size="14" lengthAdjust="spacing" textLength="146.1729" x="2010.38" y="137.3289">add_to_group(event)</text><text fill="#000000" font-family="sans-serif" font-size="14" lengthAdjust="spacing" textLength="108.3086" x="2010.38" y="153.6257">from_dict(data)</text><text fill="#000000" font-family="sans-serif" font-size="14" lengthAdjust="spacing" textLength="192.124" x="2010.38" y="169.9226">remove_from_group(event)</text><text fill="#000000" font-family="sans-serif" font-size="14" lengthAdjust="spacing" textLength="57.9414" x="2010.38" y="186.2195">to_dict()</text></g><!--class src.bootflow.interface.Interface--><g id="elem_src.bootflow.interface.Interface"><rect codeLine="45" fill="#F1F1F1" height="145.7813" id="src.bootflow.interface.Interface" rx="2.5" ry="2.5" style="stroke:#181818;stroke-width:0.5;" width="156.2451" x="137.56" y="47.74"/><ellipse cx="180.2649" cy="63.74" fill="#ADD1B2" rx="11" ry="11" style="stroke:#181818;stroke-width:1.0;"/><path d="M183.2336,69.3806 Q182.6555,69.6775 182.0149,69.8181 Q181.3743,69.9744 180.6711,69.9744 Q178.1711,69.9744 176.843,68.3338 Q175.5305,66.6775 175.5305,63.5525 Q175.5305,60.4275 176.843,58.7713 Q178.1711,57.115 180.6711,57.115 Q181.3743,57.115 182.0149,57.2713 Q182.6711,57.4275 183.2336,57.7244 L183.2336,60.4431 Q182.6086,59.865 182.0149,59.5994 Q181.4211,59.3181 180.7961,59.3181 Q179.4524,59.3181 178.7649,60.3963 Q178.0774,61.4588 178.0774,63.5525 Q178.0774,65.6463 178.7649,66.7244 Q179.4524,67.7869 180.7961,67.7869 Q181.4211,67.7869 182.0149,67.5213 Q182.6086,67.24 183.2336,66.6619 L183.2336,69.3806 Z " fill="#000000"/><text fill="#000000" font-family="sans-serif" font-size="14" lengthAdjust="spacing" textLength="62.6787" x="200.4215" y="68.5867">Interface</text><line style="stroke:#181818;stroke-width:0.5;" x1="138.56" x2="292.8051" y1="79.74" y2="79.74"/><text fill="#000000" font-family="sans-serif" font-size="14" lengthAdjust="spacing" textLength="98.6699" x="143.56" y="96.7351">comment : str</text><text fill="#000000" font-family="sans-serif" font-size="14" lengthAdjust="spacing" textLength="71.8594" x="143.56" y="113.032">name : str</text><text fill="#000000" font-family="sans-serif" font-size="14" lengthAdjust="spacing" textLength="144.2451" x="143.56" y="129.3289">transferSpeed : float</text><line style="stroke:#181818;stroke-width:0.5;" x1="138.56" x2="292.8051" y1="136.6306" y2="136.6306"/><text fill="#000000" font-family="sans-serif" font-size="14" lengthAdjust="spacing" textLength="66.3359" x="143.56" y="153.6257">cleanup()</text><text fill="#000000" font-family="sans-serif" font-size="14" lengthAdjust="spacing" textLength="108.3086" x="143.56" y="169.9226">from_dict(data)</text><text fill="#000000" font-family="sans-serif" font-size="14" lengthAdjust="spacing" textLength="57.9414" x="143.56" y="186.2195">to_dict()</text></g><!--class src.bootflow.name_registry.NameRegistry--><g id="elem_src.bootflow.name_registry.NameRegistry"><rect codeLine="53" fill="#F1F1F1" height="96.8906" id="src.bootflow.name_registry.NameRegistry" rx="2.5" ry="2.5" style="stroke:#181818;stroke-width:0.5;" width="209.0801" x="2270.15" y="72.18"/><ellipse cx="2320.818" cy="88.18" fill="#ADD1B2" rx="11" ry="11" style="stroke:#181818;stroke-width:1.0;"/><path d="M2323.7867,93.8206 Q2323.2086,94.1175 2322.568,94.2581 Q2321.9273,94.4144 2321.2242,94.4144 Q2318.7242,94.4144 2317.3961,92.7737 Q2316.0836,91.1175 2316.0836,87.9925 Q2316.0836,84.8675 2317.3961,83.2112 Q2318.7242,81.555 2321.2242,81.555 Q2321.9273,81.555 2322.568,81.7112 Q2323.2242,81.8675 2323.7867,82.1644 L2323.7867,84.8831 Q2323.1617,84.305 2322.568,84.0394 Q2321.9742,83.7581 2321.3492,83.7581 Q2320.0055,83.7581 2319.318,84.8362 Q2318.6305,85.8987 2318.6305,87.9925 Q2318.6305,90.0862 2319.318,91.1644 Q2320.0055,92.2269 2321.3492,92.2269 Q2321.9742,92.2269 2322.568,91.9612 Q2323.1617,91.68 2323.7867,91.1019 L2323.7867,93.8206 Z " fill="#000000"/><text fill="#000000" font-family="sans-serif" font-size="14" lengthAdjust="spacing" textLength="99.2441" x="2341.318" y="93.0267">NameRegistry</text><line style="stroke:#181818;stroke-width:0.5;" x1="2271.15" x2="2478.2301" y1="104.18" y2="104.18"/><line style="stroke:#181818;stroke-width:0.5;" x1="2271.15" x2="2478.2301" y1="112.18" y2="112.18"/><text fill="#000000" font-family="sans-serif" font-size="14" lengthAdjust="spacing" textLength="45.459" x="2276.15" y="129.1751">clear()</text><text fill="#000000" font-family="sans-serif" font-size="14" lengthAdjust="spacing" textLength="179.334" x="2276.15" y="145.472">register_name(name: str)</text><text fill="#000000" font-family="sans-serif" font-size="14" lengthAdjust="spacing" textLength="197.0801" x="2276.15" y="161.7689">unregister_name(name: str)</text></g><!--class src.bootflow.processor.Processor--><g id="elem_src.bootflow.processor.Processor"><rect codeLine="58" fill="#F1F1F1" height="227.2656" id="src.bootflow.processor.Processor" rx="2.5" ry="2.5" style="stroke:#181818;stroke-width:0.5;" width="303.5254" x="1665.92" y="7"/><ellipse cx="1779.441" cy="23" fill="#ADD1B2" rx="11" ry="11" style="stroke:#181818;stroke-width:1.0;"/><path d="M1782.4097,28.6406 Q1781.8316,28.9375 1781.191,29.0781 Q1780.5504,29.2344 1779.8472,29.2344 Q1777.3472,29.2344 1776.0191,27.5938 Q1774.7066,25.9375 1774.7066,22.8125 Q1774.7066,19.6875 1776.0191,18.0313 Q1777.3472,16.375 1779.8472,16.375 Q1780.5504,16.375 1781.191,16.5313 Q1781.8472,16.6875 1782.4097,16.9844 L1782.4097,19.7031 Q1781.7847,19.125 1781.191,18.8594 Q1780.5972,18.5781 1779.9722,18.5781 Q1778.6285,18.5781 1777.941,19.6563 Q1777.2535,20.7188 1777.2535,22.8125 Q1777.2535,24.9063 1777.941,25.9844 Q1778.6285,27.0469 1779.9722,27.0469 Q1780.5972,27.0469 1781.191,26.7813 Q1781.7847,26.5 1782.4097,25.9219 L1782.4097,28.6406 Z " fill="#000000"/><text fill="#000000" font-family="sans-serif" font-size="14" lengthAdjust="spacing" textLength="67.9834" x="1799.941" y="27.8467">Processor</text><line style="stroke:#181818;stroke-width:0.5;" x1="1666.92" x2="1968.4454" y1="39" y2="39"/><text fill="#000000" font-family="sans-serif" font-size="14" lengthAdjust="spacing" textLength="207.0195" x="1671.92" y="55.9951">boot_events : List[BootEvent]</text><text fill="#000000" font-family="sans-serif" font-size="14" lengthAdjust="spacing" textLength="67.3408" x="1671.92" y="72.292">boot_flow</text><text fill="#000000" font-family="sans-serif" font-size="14" lengthAdjust="spacing" textLength="98.6699" x="1671.92" y="88.5889">comment : str</text><text fill="#000000" font-family="sans-serif" font-size="14" lengthAdjust="spacing" textLength="71.8594" x="1671.92" y="104.8857">name : str</text><line style="stroke:#181818;stroke-width:0.5;" x1="1666.92" x2="1968.4454" y1="112.1875" y2="112.1875"/><text fill="#000000" font-family="sans-serif" font-size="14" lengthAdjust="spacing" textLength="205.5225" x="1671.92" y="129.1826">add_event(event: BootEvent)</text><text fill="#000000" font-family="sans-serif" font-size="14" lengthAdjust="spacing" textLength="184.5498" x="1671.92" y="145.4795">from_dict(data, boot_flow)</text><text fill="#000000" font-family="sans-serif" font-size="14" lengthAdjust="spacing" textLength="291.5254" x="1671.92" y="161.7764">move_element(index: int, new_index: int)</text><text fill="#000000" font-family="sans-serif" font-size="14" lengthAdjust="spacing" textLength="134.6543" x="1671.92" y="178.0732">remove_item(item)</text><text fill="#000000" font-family="sans-serif" font-size="14" lengthAdjust="spacing" textLength="57.9414" x="1671.92" y="194.3701">to_dict()</text><text fill="#000000" font-family="sans-serif" font-size="14" lengthAdjust="spacing" textLength="42.9365" x="1671.92" y="210.667">total()</text><text fill="#000000" font-family="sans-serif" font-size="14" lengthAdjust="spacing" textLength="126.1641" x="1671.92" y="226.9639">update_duration()</text></g><!--class src.bootflow.program_transfer.ProgramTransfer--><g id="elem_src.bootflow.program_transfer.ProgramTransfer"><rect codeLine="71" fill="#F1F1F1" height="129.4844" id="src.bootflow.program_transfer.ProgramTransfer" rx="2.5" ry="2.5" style="stroke:#181818;stroke-width:0.5;" width="417.3711" x="7" y="466.08"/><ellipse cx="152.4482" cy="482.08" fill="#ADD1B2" rx="11" ry="11" style="stroke:#181818;stroke-width:1.0;"/><path d="M155.417,487.7206 Q154.8389,488.0175 154.1982,488.1581 Q153.5576,488.3144 152.8545,488.3144 Q150.3545,488.3144 149.0264,486.6737 Q147.7139,485.0175 147.7139,481.8925 Q147.7139,478.7675 149.0264,477.1112 Q150.3545,475.455 152.8545,475.455 Q153.5576,475.455 154.1982,475.6112 Q154.8545,475.7675 155.417,476.0644 L155.417,478.7831 Q154.792,478.205 154.1982,477.9394 Q153.6045,477.6581 152.9795,477.6581 Q151.6357,477.6581 150.9482,478.7362 Q150.2607,479.7987 150.2607,481.8925 Q150.2607,483.9862 150.9482,485.0644 Q151.6357,486.1269 152.9795,486.1269 Q153.6045,486.1269 154.1982,485.8612 Q154.792,485.58 155.417,485.0019 L155.417,487.7206 Z " fill="#000000"/><text fill="#000000" font-family="sans-serif" font-size="14" lengthAdjust="spacing" textLength="117.9746" x="172.9482" y="486.9267">ProgramTransfer</text><line style="stroke:#181818;stroke-width:0.5;" x1="8" x2="423.3711" y1="498.08" y2="498.08"/><text fill="#000000" font-family="sans-serif" font-size="14" lengthAdjust="spacing" textLength="131.4209" x="13" y="515.0751">duration : float, str</text><text fill="#000000" font-family="sans-serif" font-size="14" lengthAdjust="spacing" textLength="62.4395" x="13" y="531.372">interface</text><line style="stroke:#181818;stroke-width:0.5;" x1="8" x2="423.3711" y1="538.6737" y2="538.6737"/><text fill="#000000" font-family="sans-serif" font-size="14" lengthAdjust="spacing" textLength="197.2783" x="13" y="555.6689">calculate_duration() -&gt; float</text><text fill="#000000" font-family="sans-serif" font-size="14" lengthAdjust="spacing" textLength="405.3711" x="13" y="571.9657">from_dict(data: dict, interfaces: list, processor, boot_flow)</text><text fill="#000000" font-family="sans-serif" font-size="14" lengthAdjust="spacing" textLength="109.5869" x="13" y="588.2626">to_dict() -&gt; dict</text></g><!--class src.bootflow.size_event.SizeEvent--><g id="elem_src.bootflow.size_event.SizeEvent"><rect codeLine="78" fill="#F1F1F1" height="96.8906" id="src.bootflow.size_event.SizeEvent" rx="2.5" ry="2.5" style="stroke:#181818;stroke-width:0.5;" width="111.8252" x="697.77" y="868.13"/><ellipse cx="717.7112" cy="884.13" fill="#ADD1B2" rx="11" ry="11" style="stroke:#181818;stroke-width:1.0;"/><path d="M720.68,889.7706 Q720.1018,890.0675 719.4612,890.2081 Q718.8206,890.3644 718.1175,890.3644 Q715.6175,890.3644 714.2893,888.7237 Q712.9768,887.0675 712.9768,883.9425 Q712.9768,880.8175 714.2893,879.1612 Q715.6175,877.505 718.1175,877.505 Q718.8206,877.505 719.4612,877.6612 Q720.1175,877.8175 720.68,878.1144 L720.68,880.8331 Q720.055,880.255 719.4612,879.9894 Q718.8675,879.7081 718.2425,879.7081 Q716.8987,879.7081 716.2112,880.7862 Q715.5237,881.8487 715.5237,883.9425 Q715.5237,886.0362 716.2112,887.1144 Q716.8987,888.1769 718.2425,888.1769 Q718.8675,888.1769 719.4612,887.9112 Q720.055,887.63 720.68,887.0519 L720.68,889.7706 Z " fill="#000000"/><text fill="#000000" font-family="sans-serif" font-size="14" lengthAdjust="spacing" textLength="68.8447" x="732.8093" y="888.9767">SizeEvent</text><line style="stroke:#181818;stroke-width:0.5;" x1="698.77" x2="808.5952" y1="900.13" y2="900.13"/><text fill="#000000" font-family="sans-serif" font-size="14" lengthAdjust="spacing" textLength="58.9121" x="703.77" y="917.1251">duration</text><text fill="#000000" font-family="sans-serif" font-size="14" lengthAdjust="spacing" textLength="60.6758" x="703.77" y="933.422">software</text><line style="stroke:#181818;stroke-width:0.5;" x1="698.77" x2="808.5952" y1="940.7237" y2="940.7237"/><text fill="#000000" font-family="sans-serif" font-size="14" lengthAdjust="spacing" textLength="99.8252" x="703.77" y="957.7189">get_duration()</text></g><!--class src.bootflow.size_operation.SizeOperation--><g id="elem_src.bootflow.size_operation.SizeOperation"><rect codeLine="83" fill="#F1F1F1" height="145.7813" id="src.bootflow.size_operation.SizeOperation" rx="2.5" ry="2.5" style="stroke:#181818;stroke-width:0.5;" width="309.0078" x="459.18" y="457.93"/><ellipse cx="560.2288" cy="473.93" fill="#ADD1B2" rx="11" ry="11" style="stroke:#181818;stroke-width:1.0;"/><path d="M563.1976,479.5706 Q562.6195,479.8675 561.9788,480.0081 Q561.3382,480.1644 560.6351,480.1644 Q558.1351,480.1644 556.807,478.5237 Q555.4945,476.8675 555.4945,473.7425 Q555.4945,470.6175 556.807,468.9612 Q558.1351,467.305 560.6351,467.305 Q561.3382,467.305 561.9788,467.4612 Q562.6351,467.6175 563.1976,467.9144 L563.1976,470.6331 Q562.5726,470.055 561.9788,469.7894 Q561.3851,469.5081 560.7601,469.5081 Q559.4163,469.5081 558.7288,470.5862 Q558.0413,471.6487 558.0413,473.7425 Q558.0413,475.8362 558.7288,476.9144 Q559.4163,477.9769 560.7601,477.9769 Q561.3851,477.9769 561.9788,477.7112 Q562.5726,477.43 563.1976,476.8519 L563.1976,479.5706 Z " fill="#000000"/><text fill="#000000" font-family="sans-serif" font-size="14" lengthAdjust="spacing" textLength="98.4102" x="580.7288" y="478.7767">SizeOperation</text><line style="stroke:#181818;stroke-width:0.5;" x1="460.18" x2="767.1878" y1="489.93" y2="489.93"/><text fill="#000000" font-family="sans-serif" font-size="14" lengthAdjust="spacing" textLength="91.0684" x="465.18" y="506.9251">duration : str</text><text fill="#000000" font-family="sans-serif" font-size="14" lengthAdjust="spacing" textLength="111.1045" x="465.18" y="523.222">operationSpeed</text><line style="stroke:#181818;stroke-width:0.5;" x1="460.18" x2="767.1878" y1="530.5238" y2="530.5238"/><text fill="#000000" font-family="sans-serif" font-size="14" lengthAdjust="spacing" textLength="276.0898" x="465.18" y="547.5189">calculate_duration() -&gt; Union[float, str]</text><text fill="#000000" font-family="sans-serif" font-size="14" lengthAdjust="spacing" textLength="297.0078" x="465.18" y="563.8157">from_dict(data: dict, processor, boot_flow)</text><text fill="#000000" font-family="sans-serif" font-size="14" lengthAdjust="spacing" textLength="293.3711" x="465.18" y="580.1126">get_operation_speed() -&gt; Union[float, str]</text><text fill="#000000" font-family="sans-serif" font-size="14" lengthAdjust="spacing" textLength="109.5869" x="465.18" y="596.4095">to_dict() -&gt; dict</text></g><!--class src.bootflow.software.Software--><g id="elem_src.bootflow.software.Software"><rect codeLine="91" fill="#F1F1F1" height="194.6719" id="src.bootflow.software.Software" rx="2.5" ry="2.5" style="stroke:#181818;stroke-width:0.5;" width="265.3809" x="803" y="433.49"/><ellipse cx="900.3062" cy="449.49" fill="#ADD1B2" rx="11" ry="11" style="stroke:#181818;stroke-width:1.0;"/><path d="M903.2749,455.1306 Q902.6968,455.4275 902.0562,455.5681 Q901.4155,455.7244 900.7124,455.7244 Q898.2124,455.7244 896.8843,454.0837 Q895.5718,452.4275 895.5718,449.3025 Q895.5718,446.1775 896.8843,444.5212 Q898.2124,442.865 900.7124,442.865 Q901.4155,442.865 902.0562,443.0212 Q902.7124,443.1775 903.2749,443.4744 L903.2749,446.1931 Q902.6499,445.615 902.0562,445.3494 Q901.4624,445.0681 900.8374,445.0681 Q899.4937,445.0681 898.8062,446.1462 Q898.1187,447.2087 898.1187,449.3025 Q898.1187,451.3962 898.8062,452.4744 Q899.4937,453.5369 900.8374,453.5369 Q901.4624,453.5369 902.0562,453.2712 Q902.6499,452.99 903.2749,452.4119 L903.2749,455.1306 Z " fill="#000000"/><text fill="#000000" font-family="sans-serif" font-size="14" lengthAdjust="spacing" textLength="62.2686" x="920.8062" y="454.3367">Software</text><line style="stroke:#181818;stroke-width:0.5;" x1="804" x2="1067.3809" y1="465.49" y2="465.49"/><text fill="#000000" font-family="sans-serif" font-size="14" lengthAdjust="spacing" textLength="67.3408" x="809" y="482.4851">boot_flow</text><text fill="#000000" font-family="sans-serif" font-size="14" lengthAdjust="spacing" textLength="98.6699" x="809" y="498.782">comment : str</text><text fill="#000000" font-family="sans-serif" font-size="14" lengthAdjust="spacing" textLength="71.8594" x="809" y="515.0789">name : str</text><text fill="#000000" font-family="sans-serif" font-size="14" lengthAdjust="spacing" textLength="27.1455" x="809" y="531.3757">size</text><line style="stroke:#181818;stroke-width:0.5;" x1="804" x2="1067.3809" y1="538.6775" y2="538.6775"/><text fill="#000000" font-family="sans-serif" font-size="14" lengthAdjust="spacing" textLength="253.3809" x="809" y="555.6726">check_variable_syntax(variable: str)</text><text fill="#000000" font-family="sans-serif" font-size="14" lengthAdjust="spacing" textLength="66.3359" x="809" y="571.9695">cleanup()</text><text fill="#000000" font-family="sans-serif" font-size="14" lengthAdjust="spacing" textLength="219.6797" x="809" y="588.2664">from_dict(data: dict, boot_flow)</text><text fill="#000000" font-family="sans-serif" font-size="14" lengthAdjust="spacing" textLength="231.1572" x="809" y="604.5632">get_size() -&gt; Union[int, float, str]</text><text fill="#000000" font-family="sans-serif" font-size="14" lengthAdjust="spacing" textLength="109.5869" x="809" y="620.8601">to_dict() -&gt; dict</text></g><!--class src.bootflow.time_event.TimeEvent--><g id="elem_src.bootflow.time_event.TimeEvent"><rect codeLine="102" fill="#F1F1F1" height="178.375" id="src.bootflow.time_event.TimeEvent" rx="2.5" ry="2.5" style="stroke:#181818;stroke-width:0.5;" width="309.0078" x="984.18" y="827.39"/><ellipse cx="1097.0345" cy="843.39" fill="#ADD1B2" rx="11" ry="11" style="stroke:#181818;stroke-width:1.0;"/><path d="M1100.0032,849.0306 Q1099.4251,849.3275 1098.7845,849.4681 Q1098.1439,849.6244 1097.4407,849.6244 Q1094.9407,849.6244 1093.6126,847.9837 Q1092.3001,846.3275 1092.3001,843.2025 Q1092.3001,840.0775 1093.6126,838.4212 Q1094.9407,836.765 1097.4407,836.765 Q1098.1439,836.765 1098.7845,836.9212 Q1099.4407,837.0775 1100.0032,837.3744 L1100.0032,840.0931 Q1099.3782,839.515 1098.7845,839.2494 Q1098.1907,838.9681 1097.5657,838.9681 Q1096.222,838.9681 1095.5345,840.0462 Q1094.847,841.1087 1094.847,843.2025 Q1094.847,845.2962 1095.5345,846.3744 Q1096.222,847.4369 1097.5657,847.4369 Q1098.1907,847.4369 1098.7845,847.1712 Q1099.3782,846.89 1100.0032,846.3119 L1100.0032,849.0306 Z " fill="#000000"/><text fill="#000000" font-family="sans-serif" font-size="14" lengthAdjust="spacing" textLength="74.7988" x="1117.5345" y="848.2367">TimeEvent</text><line style="stroke:#181818;stroke-width:0.5;" x1="985.18" x2="1292.1878" y1="859.39" y2="859.39"/><text fill="#000000" font-family="sans-serif" font-size="14" lengthAdjust="spacing" textLength="58.9121" x="990.18" y="876.3851">duration</text><text fill="#000000" font-family="sans-serif" font-size="14" lengthAdjust="spacing" textLength="131.7559" x="990.18" y="892.682">trigger : NoneType</text><text fill="#000000" font-family="sans-serif" font-size="14" lengthAdjust="spacing" textLength="113.8867" x="990.18" y="908.9789">wait : NoneType</text><line style="stroke:#181818;stroke-width:0.5;" x1="985.18" x2="1292.1878" y1="916.2806" y2="916.2806"/><text fill="#000000" font-family="sans-serif" font-size="14" lengthAdjust="spacing" textLength="297.0078" x="990.18" y="933.2757">from_dict(data: dict, processor, boot_flow)</text><text fill="#000000" font-family="sans-serif" font-size="14" lengthAdjust="spacing" textLength="262.9238" x="990.18" y="949.5726">get_duration() -&gt; Union[float, int, str]</text><text fill="#000000" font-family="sans-serif" font-size="14" lengthAdjust="spacing" textLength="269.623" x="990.18" y="965.8695">set_trigger(trigger: Trigger, boot_flow)</text><text fill="#000000" font-family="sans-serif" font-size="14" lengthAdjust="spacing" textLength="139.1045" x="990.18" y="982.1664">set_wait(wait: Wait)</text><text fill="#000000" font-family="sans-serif" font-size="14" lengthAdjust="spacing" textLength="109.5869" x="990.18" y="998.4632">to_dict() -&gt; dict</text></g><!--class src.bootflow.trigger_wait.Trigger--><g id="elem_src.bootflow.trigger_wait.Trigger"><rect codeLine="112" fill="#F1F1F1" height="162.0781" id="src.bootflow.trigger_wait.Trigger" rx="2.5" ry="2.5" style="stroke:#181818;stroke-width:0.5;" width="236.2734" x="1096.55" y="39.59"/><ellipse cx="1185.2668" cy="55.59" fill="#ADD1B2" rx="11" ry="11" style="stroke:#181818;stroke-width:1.0;"/><path d="M1188.2355,61.2306 Q1187.6574,61.5275 1187.0168,61.6681 Q1186.3762,61.8244 1185.673,61.8244 Q1183.173,61.8244 1181.8449,60.1837 Q1180.5324,58.5275 1180.5324,55.4025 Q1180.5324,52.2775 1181.8449,50.6212 Q1183.173,48.965 1185.673,48.965 Q1186.3762,48.965 1187.0168,49.1212 Q1187.673,49.2775 1188.2355,49.5744 L1188.2355,52.2931 Q1187.6105,51.715 1187.0168,51.4494 Q1186.423,51.1681 1185.798,51.1681 Q1184.4543,51.1681 1183.7668,52.2462 Q1183.0793,53.3087 1183.0793,55.4025 Q1183.0793,57.4962 1183.7668,58.5744 Q1184.4543,59.6369 1185.798,59.6369 Q1186.423,59.6369 1187.0168,59.3712 Q1187.6105,59.09 1188.2355,58.5119 L1188.2355,61.2306 Z " fill="#000000"/><text fill="#000000" font-family="sans-serif" font-size="14" lengthAdjust="spacing" textLength="50.3398" x="1205.7668" y="60.4367">Trigger</text><line style="stroke:#181818;stroke-width:0.5;" x1="1097.55" x2="1331.8234" y1="71.59" y2="71.59"/><text fill="#000000" font-family="sans-serif" font-size="14" lengthAdjust="spacing" textLength="39.874" x="1102.55" y="88.5851">event</text><text fill="#000000" font-family="sans-serif" font-size="14" lengthAdjust="spacing" textLength="71.8594" x="1102.55" y="104.882">name : str</text><text fill="#000000" font-family="sans-serif" font-size="14" lengthAdjust="spacing" textLength="68.4277" x="1102.55" y="121.1789">processor</text><text fill="#000000" font-family="sans-serif" font-size="14" lengthAdjust="spacing" textLength="85.9072" x="1102.55" y="137.4757">trigger_time</text><line style="stroke:#181818;stroke-width:0.5;" x1="1097.55" x2="1331.8234" y1="144.7775" y2="144.7775"/><text fill="#000000" font-family="sans-serif" font-size="14" lengthAdjust="spacing" textLength="224.2734" x="1102.55" y="161.7726">calculate_trigger_time() -&gt; float</text><text fill="#000000" font-family="sans-serif" font-size="14" lengthAdjust="spacing" textLength="157.083" x="1102.55" y="178.0695">from_dict(data, event)</text><text fill="#000000" font-family="sans-serif" font-size="14" lengthAdjust="spacing" textLength="109.5869" x="1102.55" y="194.3664">to_dict() -&gt; dict</text></g><!--class src.bootflow.trigger_wait.Wait--><g id="elem_src.bootflow.trigger_wait.Wait"><rect codeLine="121" fill="#F1F1F1" height="162.0781" id="src.bootflow.trigger_wait.Wait" rx="2.5" ry="2.5" style="stroke:#181818;stroke-width:0.5;" width="336.8506" x="1218.26" y="449.79"/><ellipse cx="1366.5349" cy="465.79" fill="#ADD1B2" rx="11" ry="11" style="stroke:#181818;stroke-width:1.0;"/><path d="M1369.5037,471.4306 Q1368.9255,471.7275 1368.2849,471.8681 Q1367.6443,472.0244 1366.9412,472.0244 Q1364.4412,472.0244 1363.113,470.3837 Q1361.8005,468.7275 1361.8005,465.6025 Q1361.8005,462.4775 1363.113,460.8212 Q1364.4412,459.165 1366.9412,459.165 Q1367.6443,459.165 1368.2849,459.3212 Q1368.9412,459.4775 1369.5037,459.7744 L1369.5037,462.4931 Q1368.8787,461.915 1368.2849,461.6494 Q1367.6912,461.3681 1367.0662,461.3681 Q1365.7224,461.3681 1365.0349,462.4462 Q1364.3474,463.5087 1364.3474,465.6025 Q1364.3474,467.6962 1365.0349,468.7744 Q1365.7224,469.8369 1367.0662,469.8369 Q1367.6912,469.8369 1368.2849,469.5712 Q1368.8787,469.29 1369.5037,468.7119 L1369.5037,471.4306 Z " fill="#000000"/><text fill="#000000" font-family="sans-serif" font-size="14" lengthAdjust="spacing" textLength="31.8008" x="1387.0349" y="470.6367">Wait</text><line style="stroke:#181818;stroke-width:0.5;" x1="1219.26" x2="1554.1106" y1="481.79" y2="481.79"/><text fill="#000000" font-family="sans-serif" font-size="14" lengthAdjust="spacing" textLength="39.874" x="1224.26" y="498.7851">event</text><text fill="#000000" font-family="sans-serif" font-size="14" lengthAdjust="spacing" textLength="68.4277" x="1224.26" y="515.082">processor</text><text fill="#000000" font-family="sans-serif" font-size="14" lengthAdjust="spacing" textLength="47.2773" x="1224.26" y="531.3789">trigger</text><text fill="#000000" font-family="sans-serif" font-size="14" lengthAdjust="spacing" textLength="214.5186" x="1224.26" y="547.6757">waiting_time : NoneType, float</text><line style="stroke:#181818;stroke-width:0.5;" x1="1219.26" x2="1554.1106" y1="554.9775" y2="554.9775"/><text fill="#000000" font-family="sans-serif" font-size="14" lengthAdjust="spacing" textLength="324.8506" x="1224.26" y="571.9726">calculate_waiting_time() -&gt; Union[float, None]</text><text fill="#000000" font-family="sans-serif" font-size="14" lengthAdjust="spacing" textLength="226.3242" x="1224.26" y="588.2695">from_dict(data, bootflow, event)</text><text fill="#000000" font-family="sans-serif" font-size="14" lengthAdjust="spacing" textLength="109.5869" x="1224.26" y="604.5664">to_dict() -&gt; dict</text></g><!--link src.bootflow.program_transfer.ProgramTransfer to src.bootflow.size_event.SizeEvent--><g id="link_src.bootflow.program_transfer.ProgramTransfer_src.bootflow.size_event.SizeEvent"><path codeLine="130" d="M272.45,595.67 C315.84,642.16 378.74,704.7 441.69,750.39 C524.77,810.69 616.2579,855.4749 680.9479,884.2949 " fill="none" id="src.bootflow.program_transfer.ProgramTransfer-to-src.bootflow.size_event.SizeEvent" style="stroke:#181818;stroke-width:1.0;"/><polygon fill="none" points="697.39,891.62,683.3896,878.8142,678.5062,889.7756,697.39,891.62" style="stroke:#181818;stroke-width:1.0;"/></g><!--link src.bootflow.size_event.SizeEvent to src.bootflow.boot_event.BootEvent--><g id="link_src.bootflow.size_event.SizeEvent_src.bootflow.boot_event.BootEvent"><path codeLine="131" d="M779.11,965.35 C794.69,994.61 806.5528,1016.9105 824.5428,1050.7105 " fill="none" id="src.bootflow.size_event.SizeEvent-to-src.bootflow.boot_event.BootEvent" style="stroke:#181818;stroke-width:1.0;"/><polygon fill="none" points="833,1066.6,829.8393,1047.8914,819.2463,1053.5296,833,1066.6" style="stroke:#181818;stroke-width:1.0;"/></g><!--link src.bootflow.size_operation.SizeOperation to src.bootflow.size_event.SizeEvent--><g id="link_src.bootflow.size_operation.SizeOperation_src.bootflow.size_event.SizeEvent"><path codeLine="132" d="M640.02,604 C668.18,681.19 705.8602,784.4904 730.0402,850.7604 " fill="none" id="src.bootflow.size_operation.SizeOperation-to-src.bootflow.size_event.SizeEvent" style="stroke:#181818;stroke-width:1.0;"/><polygon fill="none" points="736.21,867.67,735.6767,848.7038,724.4037,852.817,736.21,867.67" style="stroke:#181818;stroke-width:1.0;"/></g><!--link src.bootflow.time_event.TimeEvent to src.bootflow.boot_event.BootEvent--><g id="link_src.bootflow.time_event.TimeEvent_src.bootflow.boot_event.BootEvent"><path codeLine="133" d="M1037,1006.2 C1014.31,1025.98 1003.9286,1035.0224 981.6386,1054.4524 " fill="none" id="src.bootflow.time_event.TimeEvent-to-src.bootflow.boot_event.BootEvent" style="stroke:#181818;stroke-width:1.0;"/><polygon fill="none" points="968.07,1066.28,985.5812,1058.9752,977.6961,1049.9295,968.07,1066.28" style="stroke:#181818;stroke-width:1.0;"/></g><!--link src.bootflow.interface.Interface to src.bootflow.program_transfer.ProgramTransfer--><g id="link_src.bootflow.interface.Interface_src.bootflow.program_transfer.ProgramTransfer"><path codeLine="134" d="M215.69,193.67 C215.69,270.8 215.69,380.03 215.69,453.89 " fill="none" id="src.bootflow.interface.Interface-to-src.bootflow.program_transfer.ProgramTransfer" style="stroke:#181818;stroke-width:1.0;"/><polygon fill="none" points="215.69,465.89,219.69,459.89,215.69,453.89,211.69,459.89,215.69,465.89" style="stroke:#181818;stroke-width:1.0;"/><text fill="#000000" font-family="sans-serif" font-size="13" lengthAdjust="spacing" textLength="57.9795" x="216.69" y="277.3269">interface</text></g><!--link src.bootflow.processor.Processor to src.bootflow.boot_flow.BootFlow--><g id="link_src.bootflow.processor.Processor_src.bootflow.boot_flow.BootFlow"><path codeLine="135" d="M1817.69,234.52 C1817.69,258.47 1817.69,272.53 1817.69,298.92 " fill="none" id="src.bootflow.processor.Processor-to-src.bootflow.boot_flow.BootFlow" style="stroke:#181818;stroke-width:1.0;"/><polygon fill="none" points="1817.69,310.92,1821.69,304.92,1817.69,298.92,1813.69,304.92,1817.69,310.92" style="stroke:#181818;stroke-width:1.0;"/><text fill="#000000" font-family="sans-serif" font-size="13" lengthAdjust="spacing" textLength="102.521" x="1818.69" y="277.3269">main_processor</text></g><!--link src.bootflow.software.Software to src.bootflow.size_event.SizeEvent--><g id="link_src.bootflow.software.Software_src.bootflow.size_event.SizeEvent"><path codeLine="136" d="M889.99,628.17 C853.77,704.54 809.8323,797.1877 781.5223,856.8777 " fill="none" id="src.bootflow.software.Software-to-src.bootflow.size_event.SizeEvent" style="stroke:#181818;stroke-width:1.0;"/><polygon fill="none" points="776.38,867.72,782.5653,864.0129,781.5223,856.8777,775.3371,860.5847,776.38,867.72" style="stroke:#181818;stroke-width:1.0;"/><text fill="#000000" font-family="sans-serif" font-size="13" lengthAdjust="spacing" textLength="56.3418" x="819.69" y="793.4569">software</text></g><!--link src.bootflow.trigger_wait.Trigger to src.bootflow.time_event.TimeEvent--><g id="link_src.bootflow.trigger_wait.Trigger_src.bootflow.time_event.TimeEvent"><path codeLine="137" d="M1184.3,202.12 C1173.15,235.41 1161.77,274.7 1155.69,311.26 C1125.52,492.57 1128.1637,696.6307 1133.1637,815.0407 " fill="none" id="src.bootflow.trigger_wait.Trigger-to-src.bootflow.time_event.TimeEvent" style="stroke:#181818;stroke-width:1.0;"/><polygon fill="none" points="1133.67,827.03,1137.4133,820.8666,1133.1637,815.0407,1129.4204,821.2041,1133.67,827.03" style="stroke:#181818;stroke-width:1.0;"/><text fill="#000000" font-family="sans-serif" font-size="13" lengthAdjust="spacing" textLength="43.9004" x="1156.69" y="535.3869">trigger</text></g><!--link src.bootflow.trigger_wait.Trigger to src.bootflow.trigger_wait.Wait--><g id="link_src.bootflow.trigger_wait.Trigger_src.bootflow.trigger_wait.Wait"><path codeLine="138" d="M1248.46,201.79 C1278.64,273.42 1317.9808,366.7614 1348.1808,438.4414 " fill="none" id="src.bootflow.trigger_wait.Trigger-to-src.bootflow.trigger_wait.Wait" style="stroke:#181818;stroke-width:1.0;"/><polygon fill="none" points="1352.84,449.5,1354.1966,442.4177,1348.1808,438.4414,1346.8242,445.5238,1352.84,449.5" style="stroke:#181818;stroke-width:1.0;"/><text fill="#000000" font-family="sans-serif" font-size="13" lengthAdjust="spacing" textLength="43.9004" x="1281.69" y="277.3269">trigger</text></g><!--link src.bootflow.trigger_wait.Wait to src.bootflow.time_event.TimeEvent--><g id="link_src.bootflow.trigger_wait.Wait_src.bootflow.time_event.TimeEvent"><path codeLine="139" d="M1334.7,612.27 C1294.07,675.13 1244.1825,752.3209 1202.3125,817.1209 " fill="none" id="src.bootflow.trigger_wait.Wait-to-src.bootflow.time_event.TimeEvent" style="stroke:#181818;stroke-width:1.0;"/><polygon fill="none" points="1195.8,827.2,1202.4159,824.3313,1202.3125,817.1209,1195.6966,819.9896,1195.8,827.2" style="stroke:#181818;stroke-width:1.0;"/><text fill="#000000" font-family="sans-serif" font-size="13" lengthAdjust="spacing" textLength="27.3076" x="1227.69" y="793.4569">wait</text></g><!--SRC=[dLV9Rjim4BtxAuYU5C3M1-YGGz451OeaQ5BqO1W2BOzTeTf0qadSvT_B6P6KA56Muuj4SOR3DsyMKX8KgtW9ik4PF4B31LUrO5LTmI8hk9JitVkwLX-VeLBl69TCYYpUwfbzKR_G80MKnKwB_LambjLbYUE4IINqzq7KnqP_tMcxJwS6z1JkwkIDg3EGiiPnzfDN1qZTL5J1I_TrGngG_KgVkSZvje1KdYh5NoFxJJP9hG1U7PlePl6lxyidZNp25HfP7NA4W4kDyqEUgRKsl6IVSMgZPNcbGEmrRoZ_cakr_c9dK5polEfmQvNxHkLrnOlrzqg_rmzMj2HQDfi-3ywaqqAnhFVgXGlmy3oQILHG8ZySGFY0dzf9b5kEV0NjDbSevhjTIXv7z4nQNs-CnFaRkL72dCjMgukR6oNieHy-rBAUH7QGE3zGPGT5crVfzfHYfaJuS955CI6S5dTWHoAtjoVPYxfCTvgJQCSLnva3g4aGR7NBsZ2wn3TXD0i3PDq5LZlw_DK14jFGviCSmhIhdo650h3-zDuxU4qmKvSCowZ_7RAirmiW2xc2CiB7MB7TcZA7DiLLKeFs4tuo_AfkQIOtC0drtB7Hf4EwE-hseuttIvPIS5ol5FwOX5Ie9PJROUAxq6nClp79fn6qMKxH3GVVq422WR9pe0FfmZW6wi8VEwLWY_JweHAyadiGZmt0JizIXNejBOGv00npxXiST2SHfp4st3CLHXptTLk8UZSHjMpWD8X0iHshIQ53uU8_Xk2o97PAj7TtjBXMw8NJzUivAZ7WPASDOD9bnPZ4PMVsvl9I2bMD7muSArxGw4ogQmOEWfTF9lX1ib0XjUaH3rOGSzQoJPkb8S8b8ZB6Y-nO-3Ym76sU-RGa38VBte6Ni497fDSQ1invDOwZpid7_3TCN2Ua5fdhXDFoNEeTWQPHXcZ4jVSDj8A9NMehZptj8O4jSqwPol4CVMrdx5ZVJ58vHHpwvBPB9UutRVeSouQcWFj64bkLhjmkAITaxvehs1GH8-znWxxBL70N-_sKbrFPfRJ8P9VJ6cQNkJ_vDzKNdYj_vkqnFPCdvA3n38zHWo4oxyJUtmPMKHMHHVX8s0_zdAayOoV0J2iWSx7H8cQ8hNDtTRiIkVNgeYyurrgMR7oiZf6ZSpEmKSN3781fOfbN1yBLY-coEs6T2ttLGDZiVIjqWY2y6S_UrjTNgx-tyxroCTzDnuP2_t2BonlcDSY2bNWDij3TQhMgttXe9hsZSVPkCZ8V-75C1lz-Yva6FB8P35tIdNtprJio6UGySPLnZSLH-LrYZXGlHOSh_WC0]--></g></svg>