<svg xmlns="http://www.w3.org/2000/svg" xmlns:xlink="http://www.w3.org/1999/xlink" contentStyleType="text/css" height="708px" preserveAspectRatio="none" style="width:1686px;height:708px;background:#FFFFFF;" version="1.1" viewBox="0 0 1686 708" width="1686px" zoomAndPan="magnify"><defs/><g><!--class src.ui.tabs.base_tab.BaseTab--><g id="elem_src.ui.tabs.base_tab.BaseTab"><rect codeLine="2" fill="#F1F1F1" height="194.6719" id="src.ui.tabs.base_tab.BaseTab" rx="2.5" ry="2.5" style="stroke:#181818;stroke-width:0.5;" width="235.8701" x="376.45" y="417.2"/><ellipse cx="460.0809" cy="433.2" fill="#ADD1B2" rx="11" ry="11" style="stroke:#181818;stroke-width:1.0;"/><path d="M463.0496,438.8406 Q462.4715,439.1375 461.8309,439.2781 Q461.1902,439.4344 460.4871,439.4344 Q457.9871,439.4344 456.659,437.7938 Q455.3465,436.1375 455.3465,433.0125 Q455.3465,429.8875 456.659,428.2313 Q457.9871,426.575 460.4871,426.575 Q461.1902,426.575 461.8309,426.7313 Q462.4871,426.8875 463.0496,427.1844 L463.0496,429.9031 Q462.4246,429.325 461.8309,429.0594 Q461.2371,428.7781 460.6121,428.7781 Q459.2684,428.7781 458.5809,429.8563 Q457.8934,430.9188 457.8934,433.0125 Q457.8934,435.1063 458.5809,436.1844 Q459.2684,437.2469 460.6121,437.2469 Q461.2371,437.2469 461.8309,436.9813 Q462.4246,436.7 463.0496,436.1219 L463.0496,438.8406 Z " fill="#000000"/><text fill="#000000" font-family="sans-serif" font-size="14" lengthAdjust="spacing" textLength="60.1084" x="480.5809" y="438.0467">BaseTab</text><line style="stroke:#181818;stroke-width:0.5;" x1="377.45" x2="611.3201" y1="449.2" y2="449.2"/><text fill="#000000" font-family="sans-serif" font-size="14" lengthAdjust="spacing" textLength="26.3525" x="382.45" y="466.1951">app</text><text fill="#000000" font-family="sans-serif" font-size="14" lengthAdjust="spacing" textLength="145.1406" x="382.45" y="482.492">boot_flow : BootFlow</text><text fill="#000000" font-family="sans-serif" font-size="14" lengthAdjust="spacing" textLength="134.0596" x="382.45" y="498.7889">master : CTkFrame</text><line style="stroke:#181818;stroke-width:0.5;" x1="377.45" x2="611.3201" y1="506.0906" y2="506.0906"/><text fill="#000000" font-family="sans-serif" font-size="14" font-style="italic" lengthAdjust="spacing" textLength="117.1816" x="382.45" y="523.0857">create_widgets()</text><text fill="#000000" font-family="sans-serif" font-size="14" lengthAdjust="spacing" textLength="116.6348" x="382.45" y="539.3826">get_processors()</text><text fill="#000000" font-family="sans-serif" font-size="14" lengthAdjust="spacing" textLength="164.2881" x="382.45" y="555.6795">on_tab_selected(event)</text><text fill="#000000" font-family="sans-serif" font-size="14" lengthAdjust="spacing" textLength="223.8701" x="382.45" y="571.9764">update_bootflow(new_bootflow)</text><text fill="#000000" font-family="sans-serif" font-size="14" lengthAdjust="spacing" textLength="140.3418" x="382.45" y="588.2732">update_combobox()</text><text fill="#000000" font-family="sans-serif" font-size="14" font-style="italic" lengthAdjust="spacing" textLength="113.5518" x="382.45" y="604.5701">update_listbox()</text></g><!--class src.ui.boot_flow_app.BootFlowApp--><g id="elem_src.ui.boot_flow_app.BootFlowApp"><rect codeLine="13" fill="#F1F1F1" height="373.9375" id="src.ui.boot_flow_app.BootFlowApp" rx="2.5" ry="2.5" style="stroke:#181818;stroke-width:0.5;" width="235.8701" x="942.45" y="327.56"/><ellipse cx="1010.3685" cy="343.56" fill="#ADD1B2" rx="11" ry="11" style="stroke:#181818;stroke-width:1.0;"/><path d="M1013.3372,349.2006 Q1012.7591,349.4975 1012.1185,349.6381 Q1011.4778,349.7944 1010.7747,349.7944 Q1008.2747,349.7944 1006.9466,348.1538 Q1005.6341,346.4975 1005.6341,343.3725 Q1005.6341,340.2475 1006.9466,338.5913 Q1008.2747,336.935 1010.7747,336.935 Q1011.4778,336.935 1012.1185,337.0913 Q1012.7747,337.2475 1013.3372,337.5444 L1013.3372,340.2631 Q1012.7122,339.685 1012.1185,339.4194 Q1011.5247,339.1381 1010.8997,339.1381 Q1009.556,339.1381 1008.8685,340.2163 Q1008.181,341.2788 1008.181,343.3725 Q1008.181,345.4663 1008.8685,346.5444 Q1009.556,347.6069 1010.8997,347.6069 Q1011.5247,347.6069 1012.1185,347.3413 Q1012.7122,347.06 1013.3372,346.4819 L1013.3372,349.2006 Z " fill="#000000"/><text fill="#000000" font-family="sans-serif" font-size="14" lengthAdjust="spacing" textLength="91.5332" x="1030.8685" y="348.4067">BootFlowApp</text><line style="stroke:#181818;stroke-width:0.5;" x1="943.45" x2="1177.3201" y1="359.56" y2="359.56"/><text fill="#000000" font-family="sans-serif" font-size="14" lengthAdjust="spacing" textLength="67.3408" x="948.45" y="376.5551">boot_flow</text><text fill="#000000" font-family="sans-serif" font-size="14" lengthAdjust="spacing" textLength="97.2959" x="948.45" y="392.852">boot_flow_tab</text><text fill="#000000" font-family="sans-serif" font-size="14" lengthAdjust="spacing" textLength="145.8105" x="948.45" y="409.1489">boot_flow_tab_frame</text><text fill="#000000" font-family="sans-serif" font-size="14" lengthAdjust="spacing" textLength="70.9365" x="948.45" y="425.4457">graph_tab</text><text fill="#000000" font-family="sans-serif" font-size="14" lengthAdjust="spacing" textLength="52.0967" x="948.45" y="441.7426">init_tab</text><text fill="#000000" font-family="sans-serif" font-size="14" lengthAdjust="spacing" textLength="100.6113" x="948.45" y="458.0395">init_tab_frame</text><text fill="#000000" font-family="sans-serif" font-size="14" lengthAdjust="spacing" textLength="92.3945" x="948.45" y="474.3364">interface_tab</text><text fill="#000000" font-family="sans-serif" font-size="14" lengthAdjust="spacing" textLength="140.9092" x="948.45" y="490.6332">interface_tab_frame</text><text fill="#000000" font-family="sans-serif" font-size="14" lengthAdjust="spacing" textLength="146.2139" x="948.45" y="506.9301">menu_bar : MenuBar</text><text fill="#000000" font-family="sans-serif" font-size="14" lengthAdjust="spacing" textLength="104.4668" x="948.45" y="523.227">operations_tab</text><text fill="#000000" font-family="sans-serif" font-size="14" lengthAdjust="spacing" textLength="152.9814" x="948.45" y="539.5239">operations_tab_frame</text><text fill="#000000" font-family="sans-serif" font-size="14" lengthAdjust="spacing" textLength="90.6309" x="948.45" y="555.8207">software_tab</text><text fill="#000000" font-family="sans-serif" font-size="14" lengthAdjust="spacing" textLength="139.1455" x="948.45" y="572.1176">software_tab_frame</text><text fill="#000000" font-family="sans-serif" font-size="14" lengthAdjust="spacing" textLength="160.501" x="948.45" y="588.4145">tab_view : CTkTabview</text><text fill="#000000" font-family="sans-serif" font-size="14" lengthAdjust="spacing" textLength="77.0957" x="948.45" y="604.7114">theme : int</text><text fill="#000000" font-family="sans-serif" font-size="14" lengthAdjust="spacing" textLength="85.2441" x="948.45" y="621.0082">transfer_tab</text><text fill="#000000" font-family="sans-serif" font-size="14" lengthAdjust="spacing" textLength="133.7588" x="948.45" y="637.3051">transfer_tab_frame</text><line style="stroke:#181818;stroke-width:0.5;" x1="943.45" x2="1177.3201" y1="644.6069" y2="644.6069"/><text fill="#000000" font-family="sans-serif" font-size="14" lengthAdjust="spacing" textLength="132.6787" x="948.45" y="661.602">safe_str_to_float(s)</text><text fill="#000000" font-family="sans-serif" font-size="14" lengthAdjust="spacing" textLength="223.8701" x="948.45" y="677.8989">update_bootflow(new_bootflow)</text><text fill="#000000" font-family="sans-serif" font-size="14" lengthAdjust="spacing" textLength="113.5518" x="948.45" y="694.1957">update_listbox()</text></g><!--class src.ui.tabs.boot_flow_tab.BootFlowTab--><g id="elem_src.ui.tabs.boot_flow_tab.BootFlowTab"><rect codeLine="35" fill="#F1F1F1" height="243.5625" id="src.ui.tabs.boot_flow_tab.BootFlowTab" rx="2.5" ry="2.5" style="stroke:#181818;stroke-width:0.5;" width="272.7637" x="7" y="7"/><ellipse cx="94.0317" cy="23" fill="#ADD1B2" rx="11" ry="11" style="stroke:#181818;stroke-width:1.0;"/><path d="M97.0005,28.6406 Q96.4224,28.9375 95.7817,29.0781 Q95.1411,29.2344 94.438,29.2344 Q91.938,29.2344 90.6099,27.5938 Q89.2974,25.9375 89.2974,22.8125 Q89.2974,19.6875 90.6099,18.0313 Q91.938,16.375 94.438,16.375 Q95.1411,16.375 95.7817,16.5313 Q96.438,16.6875 97.0005,16.9844 L97.0005,19.7031 Q96.3755,19.125 95.7817,18.8594 Q95.188,18.5781 94.563,18.5781 Q93.2192,18.5781 92.5317,19.6563 Q91.8442,20.7188 91.8442,22.8125 Q91.8442,24.9063 92.5317,25.9844 Q93.2192,27.0469 94.563,27.0469 Q95.188,27.0469 95.7817,26.7813 Q96.3755,26.5 97.0005,25.9219 L97.0005,28.6406 Z " fill="#000000"/><text fill="#000000" font-family="sans-serif" font-size="14" lengthAdjust="spacing" textLength="90.2002" x="114.5317" y="27.8467">BootFlowTab</text><line style="stroke:#181818;stroke-width:0.5;" x1="8" x2="278.7637" y1="39" y2="39"/><text fill="#000000" font-family="sans-serif" font-size="14" lengthAdjust="spacing" textLength="260.7637" x="13" y="55.9951">boot_flow_window : BootFlowWindow</text><text fill="#000000" font-family="sans-serif" font-size="14" lengthAdjust="spacing" textLength="178.1172" x="13" y="72.292">button_down : ImgButton</text><text fill="#000000" font-family="sans-serif" font-size="14" lengthAdjust="spacing" textLength="169.2852" x="13" y="88.5889">button_plus : ImgButton</text><text fill="#000000" font-family="sans-serif" font-size="14" lengthAdjust="spacing" textLength="158.1016" x="13" y="104.8857">button_up : ImgButton</text><text fill="#000000" font-family="sans-serif" font-size="14" lengthAdjust="spacing" textLength="219.2627" x="13" y="121.1826">comment_field : CommentField</text><text fill="#000000" font-family="sans-serif" font-size="14" lengthAdjust="spacing" textLength="232.668" x="13" y="137.4795">input_frame : CustomInputFrame</text><text fill="#000000" font-family="sans-serif" font-size="14" lengthAdjust="spacing" textLength="150.4453" x="13" y="153.7764">pop_up : CTkToplevel</text><line style="stroke:#181818;stroke-width:0.5;" x1="8" x2="278.7637" y1="161.0781" y2="161.0781"/><text fill="#000000" font-family="sans-serif" font-size="14" lengthAdjust="spacing" textLength="112.7041" x="13" y="178.0732">add_processor()</text><text fill="#000000" font-family="sans-serif" font-size="14" lengthAdjust="spacing" textLength="165.1768" x="13" y="194.3701">add_processor_popUp()</text><text fill="#000000" font-family="sans-serif" font-size="14" lengthAdjust="spacing" textLength="117.1816" x="13" y="210.667">create_widgets()</text><text fill="#000000" font-family="sans-serif" font-size="14" lengthAdjust="spacing" textLength="164.2881" x="13" y="226.9639">on_tab_selected(event)</text><text fill="#000000" font-family="sans-serif" font-size="14" lengthAdjust="spacing" textLength="113.5518" x="13" y="243.2607">update_listbox()</text></g><!--class src.ui.tabs.init_tab.InitTab--><g id="elem_src.ui.tabs.init_tab.InitTab"><rect codeLine="49" fill="#F1F1F1" height="227.2656" id="src.ui.tabs.init_tab.InitTab" rx="2.5" ry="2.5" style="stroke:#181818;stroke-width:0.5;" width="244.668" x="875.05" y="15.15"/><ellipse cx="968.9348" cy="31.15" fill="#ADD1B2" rx="11" ry="11" style="stroke:#181818;stroke-width:1.0;"/><path d="M971.9035,36.7906 Q971.3254,37.0875 970.6848,37.2281 Q970.0441,37.3844 969.341,37.3844 Q966.841,37.3844 965.5129,35.7437 Q964.2004,34.0875 964.2004,30.9625 Q964.2004,27.8375 965.5129,26.1812 Q966.841,24.525 969.341,24.525 Q970.0441,24.525 970.6848,24.6812 Q971.341,24.8375 971.9035,25.1344 L971.9035,27.8531 Q971.2785,27.275 970.6848,27.0094 Q970.091,26.7281 969.466,26.7281 Q968.1223,26.7281 967.4348,27.8062 Q966.7473,28.8687 966.7473,30.9625 Q966.7473,33.0562 967.4348,34.1344 Q968.1223,35.1969 969.466,35.1969 Q970.091,35.1969 970.6848,34.9312 Q971.2785,34.65 971.9035,34.0719 L971.9035,36.7906 Z " fill="#000000"/><text fill="#000000" font-family="sans-serif" font-size="14" lengthAdjust="spacing" textLength="48.3984" x="989.4348" y="35.9967">InitTab</text><line style="stroke:#181818;stroke-width:0.5;" x1="876.05" x2="1118.718" y1="47.15" y2="47.15"/><text fill="#000000" font-family="sans-serif" font-size="14" lengthAdjust="spacing" textLength="219.2627" x="881.05" y="64.1451">comment_field : CommentField</text><text fill="#000000" font-family="sans-serif" font-size="14" lengthAdjust="spacing" textLength="232.668" x="881.05" y="80.442">input_frame : CustomInputFrame</text><text fill="#000000" font-family="sans-serif" font-size="14" lengthAdjust="spacing" textLength="212.2695" x="881.05" y="96.7389">tree : CustomModernTreeview</text><line style="stroke:#181818;stroke-width:0.5;" x1="876.05" x2="1118.718" y1="104.0406" y2="104.0406"/><text fill="#000000" font-family="sans-serif" font-size="14" lengthAdjust="spacing" textLength="161.7998" x="881.05" y="121.0357">add_or_update_event()</text><text fill="#000000" font-family="sans-serif" font-size="14" lengthAdjust="spacing" textLength="155.2578" x="881.05" y="137.3326">clear_selection(event)</text><text fill="#000000" font-family="sans-serif" font-size="14" lengthAdjust="spacing" textLength="117.1816" x="881.05" y="153.6295">create_widgets()</text><text fill="#000000" font-family="sans-serif" font-size="14" lengthAdjust="spacing" textLength="101.9033" x="881.05" y="169.9264">delete_event()</text><text fill="#000000" font-family="sans-serif" font-size="14" lengthAdjust="spacing" textLength="95.4844" x="881.05" y="186.2232">get_triggers()</text><text fill="#000000" font-family="sans-serif" font-size="14" lengthAdjust="spacing" textLength="152.3047" x="881.05" y="202.5201">on_tree_select(event)</text><text fill="#000000" font-family="sans-serif" font-size="14" lengthAdjust="spacing" textLength="140.3418" x="881.05" y="218.817">update_combobox()</text><text fill="#000000" font-family="sans-serif" font-size="14" lengthAdjust="spacing" textLength="113.5518" x="881.05" y="235.1139">update_listbox()</text></g><!--class src.ui.tabs.interfaces_tab.InterfacesTab--><g id="elem_src.ui.tabs.interfaces_tab.InterfacesTab"><rect codeLine="62" fill="#F1F1F1" height="210.9688" id="src.ui.tabs.interfaces_tab.InterfacesTab" rx="2.5" ry="2.5" style="stroke:#181818;stroke-width:0.5;" width="244.668" x="595.05" y="23.3"/><ellipse cx="665.1389" cy="39.3" fill="#ADD1B2" rx="11" ry="11" style="stroke:#181818;stroke-width:1.0;"/><path d="M668.1076,44.9406 Q667.5295,45.2375 666.8889,45.3781 Q666.2482,45.5344 665.5451,45.5344 Q663.0451,45.5344 661.717,43.8937 Q660.4045,42.2375 660.4045,39.1125 Q660.4045,35.9875 661.717,34.3312 Q663.0451,32.675 665.5451,32.675 Q666.2482,32.675 666.8889,32.8312 Q667.5451,32.9875 668.1076,33.2844 L668.1076,36.0031 Q667.4826,35.425 666.8889,35.1594 Q666.2951,34.8781 665.6701,34.8781 Q664.3264,34.8781 663.6389,35.9562 Q662.9514,37.0187 662.9514,39.1125 Q662.9514,41.2062 663.6389,42.2844 Q664.3264,43.3469 665.6701,43.3469 Q666.2951,43.3469 666.8889,43.0812 Q667.4826,42.8 668.1076,42.2219 L668.1076,44.9406 Z " fill="#000000"/><text fill="#000000" font-family="sans-serif" font-size="14" lengthAdjust="spacing" textLength="95.9902" x="685.6389" y="44.1467">InterfacesTab</text><line style="stroke:#181818;stroke-width:0.5;" x1="596.05" x2="838.718" y1="55.3" y2="55.3"/><text fill="#000000" font-family="sans-serif" font-size="14" lengthAdjust="spacing" textLength="219.2627" x="601.05" y="72.2951">comment_field : CommentField</text><text fill="#000000" font-family="sans-serif" font-size="14" lengthAdjust="spacing" textLength="232.668" x="601.05" y="88.592">input_frame : CustomInputFrame</text><text fill="#000000" font-family="sans-serif" font-size="14" lengthAdjust="spacing" textLength="212.2695" x="601.05" y="104.8889">tree : CustomModernTreeview</text><line style="stroke:#181818;stroke-width:0.5;" x1="596.05" x2="838.718" y1="112.1906" y2="112.1906"/><text fill="#000000" font-family="sans-serif" font-size="14" lengthAdjust="spacing" textLength="184.3652" x="601.05" y="129.1857">add_or_update_interface()</text><text fill="#000000" font-family="sans-serif" font-size="14" lengthAdjust="spacing" textLength="155.2578" x="601.05" y="145.4826">clear_selection(event)</text><text fill="#000000" font-family="sans-serif" font-size="14" lengthAdjust="spacing" textLength="117.1816" x="601.05" y="161.7795">create_widgets()</text><text fill="#000000" font-family="sans-serif" font-size="14" lengthAdjust="spacing" textLength="124.4688" x="601.05" y="178.0764">delete_interface()</text><text fill="#000000" font-family="sans-serif" font-size="14" lengthAdjust="spacing" textLength="164.2881" x="601.05" y="194.3732">on_tab_selected(event)</text><text fill="#000000" font-family="sans-serif" font-size="14" lengthAdjust="spacing" textLength="152.3047" x="601.05" y="210.6701">on_tree_select(event)</text><text fill="#000000" font-family="sans-serif" font-size="14" lengthAdjust="spacing" textLength="113.5518" x="601.05" y="226.967">update_listbox()</text></g><!--class src.ui.tabs.operations_tab.OperationsTab--><g id="elem_src.ui.tabs.operations_tab.OperationsTab"><rect codeLine="74" fill="#F1F1F1" height="227.2656" id="src.ui.tabs.operations_tab.OperationsTab" rx="2.5" ry="2.5" style="stroke:#181818;stroke-width:0.5;" width="244.668" x="315.05" y="15.15"/><ellipse cx="381.6423" cy="31.15" fill="#ADD1B2" rx="11" ry="11" style="stroke:#181818;stroke-width:1.0;"/><path d="M384.611,36.7906 Q384.0329,37.0875 383.3923,37.2281 Q382.7517,37.3844 382.0485,37.3844 Q379.5485,37.3844 378.2204,35.7437 Q376.9079,34.0875 376.9079,30.9625 Q376.9079,27.8375 378.2204,26.1812 Q379.5485,24.525 382.0485,24.525 Q382.7517,24.525 383.3923,24.6812 Q384.0485,24.8375 384.611,25.1344 L384.611,27.8531 Q383.986,27.275 383.3923,27.0094 Q382.7985,26.7281 382.1735,26.7281 Q380.8298,26.7281 380.1423,27.8062 Q379.4548,28.8687 379.4548,30.9625 Q379.4548,33.0562 380.1423,34.1344 Q380.8298,35.1969 382.1735,35.1969 Q382.7985,35.1969 383.3923,34.9312 Q383.986,34.65 384.611,34.0719 L384.611,36.7906 Z " fill="#000000"/><text fill="#000000" font-family="sans-serif" font-size="14" lengthAdjust="spacing" textLength="102.9834" x="402.1423" y="35.9967">OperationsTab</text><line style="stroke:#181818;stroke-width:0.5;" x1="316.05" x2="558.718" y1="47.15" y2="47.15"/><text fill="#000000" font-family="sans-serif" font-size="14" lengthAdjust="spacing" textLength="219.2627" x="321.05" y="64.1451">comment_field : CommentField</text><text fill="#000000" font-family="sans-serif" font-size="14" lengthAdjust="spacing" textLength="232.668" x="321.05" y="80.442">input_frame : CustomInputFrame</text><text fill="#000000" font-family="sans-serif" font-size="14" lengthAdjust="spacing" textLength="212.2695" x="321.05" y="96.7389">tree : CustomModernTreeview</text><line style="stroke:#181818;stroke-width:0.5;" x1="316.05" x2="558.718" y1="104.0406" y2="104.0406"/><text fill="#000000" font-family="sans-serif" font-size="14" lengthAdjust="spacing" textLength="189.1436" x="321.05" y="121.0357">add_or_update_operation()</text><text fill="#000000" font-family="sans-serif" font-size="14" lengthAdjust="spacing" textLength="155.2578" x="321.05" y="137.3326">clear_selection(event)</text><text fill="#000000" font-family="sans-serif" font-size="14" lengthAdjust="spacing" textLength="117.1816" x="321.05" y="153.6295">create_widgets()</text><text fill="#000000" font-family="sans-serif" font-size="14" lengthAdjust="spacing" textLength="129.2471" x="321.05" y="169.9264">delete_operation()</text><text fill="#000000" font-family="sans-serif" font-size="14" lengthAdjust="spacing" textLength="101.5889" x="321.05" y="186.2232">get_software()</text><text fill="#000000" font-family="sans-serif" font-size="14" lengthAdjust="spacing" textLength="152.3047" x="321.05" y="202.5201">on_tree_select(event)</text><text fill="#000000" font-family="sans-serif" font-size="14" lengthAdjust="spacing" textLength="140.3418" x="321.05" y="218.817">update_combobox()</text><text fill="#000000" font-family="sans-serif" font-size="14" lengthAdjust="spacing" textLength="113.5518" x="321.05" y="235.1139">update_listbox()</text></g><!--class src.ui.tabs.software_tab.SoftwareTab--><g id="elem_src.ui.tabs.software_tab.SoftwareTab"><rect codeLine="87" fill="#F1F1F1" height="210.9688" id="src.ui.tabs.software_tab.SoftwareTab" rx="2.5" ry="2.5" style="stroke:#181818;stroke-width:0.5;" width="244.668" x="1155.05" y="23.3"/><ellipse cx="1228.9909" cy="39.3" fill="#ADD1B2" rx="11" ry="11" style="stroke:#181818;stroke-width:1.0;"/><path d="M1231.9597,44.9406 Q1231.3815,45.2375 1230.7409,45.3781 Q1230.1003,45.5344 1229.3972,45.5344 Q1226.8972,45.5344 1225.569,43.8937 Q1224.2565,42.2375 1224.2565,39.1125 Q1224.2565,35.9875 1225.569,34.3312 Q1226.8972,32.675 1229.3972,32.675 Q1230.1003,32.675 1230.7409,32.8312 Q1231.3972,32.9875 1231.9597,33.2844 L1231.9597,36.0031 Q1231.3347,35.425 1230.7409,35.1594 Q1230.1472,34.8781 1229.5222,34.8781 Q1228.1784,34.8781 1227.4909,35.9562 Q1226.8034,37.0187 1226.8034,39.1125 Q1226.8034,41.2062 1227.4909,42.2844 Q1228.1784,43.3469 1229.5222,43.3469 Q1230.1472,43.3469 1230.7409,43.0812 Q1231.3347,42.8 1231.9597,42.2219 L1231.9597,44.9406 Z " fill="#000000"/><text fill="#000000" font-family="sans-serif" font-size="14" lengthAdjust="spacing" textLength="88.2861" x="1249.4909" y="44.1467">SoftwareTab</text><line style="stroke:#181818;stroke-width:0.5;" x1="1156.05" x2="1398.718" y1="55.3" y2="55.3"/><text fill="#000000" font-family="sans-serif" font-size="14" lengthAdjust="spacing" textLength="219.2627" x="1161.05" y="72.2951">comment_field : CommentField</text><text fill="#000000" font-family="sans-serif" font-size="14" lengthAdjust="spacing" textLength="232.668" x="1161.05" y="88.592">input_frame : CustomInputFrame</text><text fill="#000000" font-family="sans-serif" font-size="14" lengthAdjust="spacing" textLength="212.2695" x="1161.05" y="104.8889">tree : CustomModernTreeview</text><line style="stroke:#181818;stroke-width:0.5;" x1="1156.05" x2="1398.718" y1="112.1906" y2="112.1906"/><text fill="#000000" font-family="sans-serif" font-size="14" lengthAdjust="spacing" textLength="182.6016" x="1161.05" y="129.1857">add_or_update_software()</text><text fill="#000000" font-family="sans-serif" font-size="14" lengthAdjust="spacing" textLength="155.2578" x="1161.05" y="145.4826">clear_selection(event)</text><text fill="#000000" font-family="sans-serif" font-size="14" lengthAdjust="spacing" textLength="117.1816" x="1161.05" y="161.7795">create_widgets()</text><text fill="#000000" font-family="sans-serif" font-size="14" lengthAdjust="spacing" textLength="122.7051" x="1161.05" y="178.0764">delete_software()</text><text fill="#000000" font-family="sans-serif" font-size="14" lengthAdjust="spacing" textLength="164.2881" x="1161.05" y="194.3732">on_tab_selected(event)</text><text fill="#000000" font-family="sans-serif" font-size="14" lengthAdjust="spacing" textLength="152.3047" x="1161.05" y="210.6701">on_tree_select(event)</text><text fill="#000000" font-family="sans-serif" font-size="14" lengthAdjust="spacing" textLength="113.5518" x="1161.05" y="226.967">update_listbox()</text></g><!--class src.ui.tabs.transfers_tab.TransfersTab--><g id="elem_src.ui.tabs.transfers_tab.TransfersTab"><rect codeLine="99" fill="#F1F1F1" height="243.5625" id="src.ui.tabs.transfers_tab.TransfersTab" rx="2.5" ry="2.5" style="stroke:#181818;stroke-width:0.5;" width="244.668" x="1435.05" y="7"/><ellipse cx="1507.3024" cy="23" fill="#ADD1B2" rx="11" ry="11" style="stroke:#181818;stroke-width:1.0;"/><path d="M1510.2712,28.6406 Q1509.6931,28.9375 1509.0524,29.0781 Q1508.4118,29.2344 1507.7087,29.2344 Q1505.2087,29.2344 1503.8806,27.5938 Q1502.5681,25.9375 1502.5681,22.8125 Q1502.5681,19.6875 1503.8806,18.0313 Q1505.2087,16.375 1507.7087,16.375 Q1508.4118,16.375 1509.0524,16.5313 Q1509.7087,16.6875 1510.2712,16.9844 L1510.2712,19.7031 Q1509.6462,19.125 1509.0524,18.8594 Q1508.4587,18.5781 1507.8337,18.5781 Q1506.4899,18.5781 1505.8024,19.6563 Q1505.1149,20.7188 1505.1149,22.8125 Q1505.1149,24.9063 1505.8024,25.9844 Q1506.4899,27.0469 1507.8337,27.0469 Q1508.4587,27.0469 1509.0524,26.7813 Q1509.6462,26.5 1510.2712,25.9219 L1510.2712,28.6406 Z " fill="#000000"/><text fill="#000000" font-family="sans-serif" font-size="14" lengthAdjust="spacing" textLength="91.6631" x="1527.8024" y="27.8467">TransfersTab</text><line style="stroke:#181818;stroke-width:0.5;" x1="1436.05" x2="1678.718" y1="39" y2="39"/><text fill="#000000" font-family="sans-serif" font-size="14" lengthAdjust="spacing" textLength="219.2627" x="1441.05" y="55.9951">comment_field : CommentField</text><text fill="#000000" font-family="sans-serif" font-size="14" lengthAdjust="spacing" textLength="232.668" x="1441.05" y="72.292">input_frame : CustomInputFrame</text><text fill="#000000" font-family="sans-serif" font-size="14" lengthAdjust="spacing" textLength="212.2695" x="1441.05" y="88.5889">tree : CustomModernTreeview</text><line style="stroke:#181818;stroke-width:0.5;" x1="1436.05" x2="1678.718" y1="95.8906" y2="95.8906"/><text fill="#000000" font-family="sans-serif" font-size="14" lengthAdjust="spacing" textLength="177.2148" x="1441.05" y="112.8857">add_or_update_transfer()</text><text fill="#000000" font-family="sans-serif" font-size="14" lengthAdjust="spacing" textLength="155.2578" x="1441.05" y="129.1826">clear_selection(event)</text><text fill="#000000" font-family="sans-serif" font-size="14" lengthAdjust="spacing" textLength="117.1816" x="1441.05" y="145.4795">create_widgets()</text><text fill="#000000" font-family="sans-serif" font-size="14" lengthAdjust="spacing" textLength="117.3184" x="1441.05" y="161.7764">delete_transfer()</text><text fill="#000000" font-family="sans-serif" font-size="14" lengthAdjust="spacing" textLength="110.6465" x="1441.05" y="178.0732">get_interfaces()</text><text fill="#000000" font-family="sans-serif" font-size="14" lengthAdjust="spacing" textLength="101.5889" x="1441.05" y="194.3701">get_software()</text><text fill="#000000" font-family="sans-serif" font-size="14" lengthAdjust="spacing" textLength="152.3047" x="1441.05" y="210.667">on_tree_select(event)</text><text fill="#000000" font-family="sans-serif" font-size="14" lengthAdjust="spacing" textLength="140.3418" x="1441.05" y="226.9639">update_combobox()</text><text fill="#000000" font-family="sans-serif" font-size="14" lengthAdjust="spacing" textLength="113.5518" x="1441.05" y="243.2607">update_listbox()</text></g><!--link src.ui.tabs.boot_flow_tab.BootFlowTab to src.ui.tabs.base_tab.BaseTab--><g id="link_src.ui.tabs.boot_flow_tab.BootFlowTab_src.ui.tabs.base_tab.BaseTab"><path codeLine="113" d="M254.2,250.94 C303.12,304.42 347.6808,353.1485 393.7108,403.4685 " fill="none" id="src.ui.tabs.boot_flow_tab.BootFlowTab-to-src.ui.tabs.base_tab.BaseTab" style="stroke:#181818;stroke-width:1.0;"/><polygon fill="none" points="405.86,416.75,398.138,399.4188,389.2837,407.5182,405.86,416.75" style="stroke:#181818;stroke-width:1.0;"/></g><!--link src.ui.tabs.init_tab.InitTab to src.ui.tabs.base_tab.BaseTab--><g id="link_src.ui.tabs.init_tab.InitTab_src.ui.tabs.base_tab.BaseTab"><path codeLine="114" d="M874.87,242.05 C869.13,245.19 863.29,248.05 857.38,250.56 C791.46,278.63 589.15,232.11 536.38,280.56 C499.45,314.47 488.8126,350.9811 487.1326,398.7511 " fill="none" id="src.ui.tabs.init_tab.InitTab-to-src.ui.tabs.base_tab.BaseTab" style="stroke:#181818;stroke-width:1.0;"/><polygon fill="none" points="486.5,416.74,493.1289,398.962,481.1363,398.5402,486.5,416.74" style="stroke:#181818;stroke-width:1.0;"/></g><!--link src.ui.tabs.interfaces_tab.InterfacesTab to src.ui.tabs.base_tab.BaseTab--><g id="link_src.ui.tabs.interfaces_tab.InterfacesTab_src.ui.tabs.base_tab.BaseTab"><path codeLine="115" d="M602.11,234.57 C593.96,240.29 585.68,245.68 577.38,250.56 C543.92,270.22 517.68,248.8 495.38,280.56 C468.07,319.46 463.5068,353.8545 468.8468,399.0245 " fill="none" id="src.ui.tabs.interfaces_tab.InterfacesTab-to-src.ui.tabs.base_tab.BaseTab" style="stroke:#181818;stroke-width:1.0;"/><polygon fill="none" points="470.96,416.9,474.8053,398.3201,462.8882,399.7289,470.96,416.9" style="stroke:#181818;stroke-width:1.0;"/></g><!--link src.ui.tabs.operations_tab.OperationsTab to src.ui.tabs.base_tab.BaseTab--><g id="link_src.ui.tabs.operations_tab.OperationsTab_src.ui.tabs.base_tab.BaseTab"><path codeLine="116" d="M447.54,242.75 C449.56,261.1 451.85,279.88 454.38,297.56 C459.98,336.73 464.2319,361.9398 471.3319,399.0998 " fill="none" id="src.ui.tabs.operations_tab.OperationsTab-to-src.ui.tabs.base_tab.BaseTab" style="stroke:#181818;stroke-width:1.0;"/><polygon fill="none" points="474.71,416.78,477.2253,397.9738,465.4385,400.2258,474.71,416.78" style="stroke:#181818;stroke-width:1.0;"/></g><!--link src.ui.tabs.software_tab.SoftwareTab to src.ui.tabs.base_tab.BaseTab--><g id="link_src.ui.tabs.software_tab.SoftwareTab_src.ui.tabs.base_tab.BaseTab"><path codeLine="117" d="M1168.66,234.51 C1158.58,240.76 1148.1,246.25 1137.38,250.56 C1079.58,273.83 627.32,243.3 577.38,280.56 C534.71,312.4 517.543,350.4325 507.433,399.3525 " fill="none" id="src.ui.tabs.software_tab.SoftwareTab-to-src.ui.tabs.base_tab.BaseTab" style="stroke:#181818;stroke-width:1.0;"/><polygon fill="none" points="503.79,416.98,513.3088,400.5668,501.5571,398.1382,503.79,416.98" style="stroke:#181818;stroke-width:1.0;"/></g><!--link src.ui.tabs.transfers_tab.TransfersTab to src.ui.tabs.base_tab.BaseTab--><g id="link_src.ui.tabs.transfers_tab.TransfersTab_src.ui.tabs.base_tab.BaseTab"><path codeLine="118" d="M1439.52,250.88 C1415.16,269.62 1388.34,286.42 1360.38,297.56 C1180.36,369.3 1113.71,281.85 925.38,327.56 C815.1,354.33 713.3544,398.9197 628.8144,441.3897 " fill="none" id="src.ui.tabs.transfers_tab.TransfersTab-to-src.ui.tabs.base_tab.BaseTab" style="stroke:#181818;stroke-width:1.0;"/><polygon fill="none" points="612.73,449.47,631.5079,446.7512,626.121,436.0282,612.73,449.47" style="stroke:#181818;stroke-width:1.0;"/></g><!--link src.ui.tabs.boot_flow_tab.BootFlowTab to src.ui.boot_flow_app.BootFlowApp--><g id="link_src.ui.tabs.boot_flow_tab.BootFlowTab_src.ui.boot_flow_app.BootFlowApp"><path codeLine="119" d="M279.99,241.5 C285.75,244.74 291.56,247.77 297.38,250.56 C434,315.97 485.49,280.26 629.38,327.56 C737.96,363.26 846.0676,410.5602 931.4576,450.6502 " fill="none" id="src.ui.tabs.boot_flow_tab.BootFlowTab-to-src.ui.boot_flow_app.BootFlowApp" style="stroke:#181818;stroke-width:1.0;"/><polygon fill="#181818" points="942.32,455.75,938.5887,449.5793,931.4576,450.6502,935.1889,456.8209,942.32,455.75" style="stroke:#181818;stroke-width:1.0;"/><text fill="#000000" font-family="sans-serif" font-size="13" lengthAdjust="spacing" textLength="135.3955" x="473.38" y="293.6269">boot_flow_tab_frame</text></g><!--link src.ui.tabs.init_tab.InitTab to src.ui.boot_flow_app.BootFlowApp--><g id="link_src.ui.tabs.init_tab.InitTab_src.ui.boot_flow_app.BootFlowApp"><path codeLine="120" d="M1090.63,242.59 C1097.37,254.87 1103.16,267.62 1107.38,280.56 C1112.27,295.57 1114.2651,299.2962 1114.7751,315.1862 " fill="none" id="src.ui.tabs.init_tab.InitTab-to-src.ui.boot_flow_app.BootFlowApp" style="stroke:#181818;stroke-width:1.0;"/><polygon fill="#181818" points="1115.16,327.18,1118.9655,321.0548,1114.7751,315.1862,1110.9696,321.3114,1115.16,327.18" style="stroke:#181818;stroke-width:1.0;"/><text fill="#000000" font-family="sans-serif" font-size="13" lengthAdjust="spacing" textLength="93.4248" x="1112.38" y="293.6269">init_tab_frame</text></g><!--link src.ui.tabs.interfaces_tab.InterfacesTab to src.ui.boot_flow_app.BootFlowApp--><g id="link_src.ui.tabs.interfaces_tab.InterfacesTab_src.ui.boot_flow_app.BootFlowApp"><path codeLine="121" d="M833.15,234.7 C841.15,240.35 849.26,245.7 857.38,250.56 C889.25,269.64 907.53,255.99 935.38,280.56 C950.79,294.15 957.6014,300.3738 969.9514,317.4638 " fill="none" id="src.ui.tabs.interfaces_tab.InterfacesTab-to-src.ui.boot_flow_app.BootFlowApp" style="stroke:#181818;stroke-width:1.0;"/><polygon fill="#181818" points="976.98,327.19,976.7078,319.984,969.9514,317.4638,970.2236,324.6698,976.98,327.19" style="stroke:#181818;stroke-width:1.0;"/><text fill="#000000" font-family="sans-serif" font-size="13" lengthAdjust="spacing" textLength="130.8442" x="952.38" y="293.6269">interface_tab_frame</text></g><!--link src.ui.tabs.operations_tab.OperationsTab to src.ui.boot_flow_app.BootFlowApp--><g id="link_src.ui.tabs.operations_tab.OperationsTab_src.ui.boot_flow_app.BootFlowApp"><path codeLine="122" d="M560.15,241.48 C565.82,244.77 571.58,247.82 577.38,250.56 C648.34,284.08 679.36,249.4 751.38,280.56 C792.15,298.2 863.92,352.2682 932.81,407.6882 " fill="none" id="src.ui.tabs.operations_tab.OperationsTab-to-src.ui.boot_flow_app.BootFlowApp" style="stroke:#181818;stroke-width:1.0;"/><polygon fill="#181818" points="942.16,415.21,939.9923,408.3324,932.81,407.6882,934.9777,414.5658,942.16,415.21" style="stroke:#181818;stroke-width:1.0;"/><text fill="#000000" font-family="sans-serif" font-size="13" lengthAdjust="spacing" textLength="142.0542" x="780.38" y="293.6269">operations_tab_frame</text></g><!--link src.ui.tabs.software_tab.SoftwareTab to src.ui.boot_flow_app.BootFlowApp--><g id="link_src.ui.tabs.software_tab.SoftwareTab_src.ui.boot_flow_app.BootFlowApp"><path codeLine="123" d="M1242.85,234.57 C1234.5,255.87 1224.91,277.79 1214.38,297.56 C1203.78,317.48 1198.1302,327.6189 1185.3502,347.2789 " fill="none" id="src.ui.tabs.software_tab.SoftwareTab-to-src.ui.boot_flow_app.BootFlowApp" style="stroke:#181818;stroke-width:1.0;"/><polygon fill="#181818" points="1178.81,357.34,1185.4338,354.4895,1185.3502,347.2789,1178.7264,350.1294,1178.81,357.34" style="stroke:#181818;stroke-width:1.0;"/><text fill="#000000" font-family="sans-serif" font-size="13" lengthAdjust="spacing" textLength="129.2065" x="1222.38" y="293.6269">software_tab_frame</text></g><!--link src.ui.tabs.transfers_tab.TransfersTab to src.ui.boot_flow_app.BootFlowApp--><g id="link_src.ui.tabs.transfers_tab.TransfersTab_src.ui.boot_flow_app.BootFlowApp"><path codeLine="124" d="M1525.5,250.72 C1517.52,267.68 1507.63,283.93 1495.38,297.56 C1410.71,391.8 1286.9933,446.073 1189.8033,477.923 " fill="none" id="src.ui.tabs.transfers_tab.TransfersTab-to-src.ui.boot_flow_app.BootFlowApp" style="stroke:#181818;stroke-width:1.0;"/><polygon fill="#181818" points="1178.4,481.66,1185.3473,483.5926,1189.8033,477.923,1182.856,475.9904,1178.4,481.66" style="stroke:#181818;stroke-width:1.0;"/><text fill="#000000" font-family="sans-serif" font-size="13" lengthAdjust="spacing" textLength="124.2046" x="1508.38" y="293.6269">transfer_tab_frame</text></g><!--SRC=[lLVDRjim3BxdAOoUiW7r0_GmO1aG88TYXsROqP1jEZLcIu8aDmEwllj8MvRbH7NihCib47z4YXy_qOe64t5MWvOiWoUGJ34ZLCG5XrLMCQsZkmtJi6VfNSHqf5KMDsLiMAhZ5FK9hcBh4BskeeX9YR-f42OfAd6C7g8DhhUuH7NDj065kc_xNrk5ML7tYg6COfbvonGm0ycnp0zWzFeJ6d6HI2Koq5geJYKuvKmqL90PoDVm0joGeP4vRQVKb7dDuUW4pvw9EXMf-Dq66v9RQrLgqndVNFds_5-bz25m9IPOSkmvjJ0ugx-cWv_AIM5nE2Wcdwr7oKjpidH-9KS82soMS_1avrK3RvAK4TQFkDmmHT19mEwMWckxTwnmcxKep96fFeClEXzQlvHmx9g9tIU1zCzG0ohnM2GfndK1oaRonI4RAo31BYH642hChFM2TauqBCXP7_lOynnt3Kd8yn5xVxOAyccCGGwYmD6ygm-RLZ5OPDNeiAMH9tha8ZOAKvPGvOHa9sz9R5ih6zFXHCP66r7lIDVV7Iba5vHQ86I5Tw6YEvZdmwrfUJxI9BZjXsprWIjtwNu50DyXHqDWzzoDhKEByR_MR1GCbaUHW-9xL5dwKQ5OeJrhU_Qkq0gOiaKXtuUg0WZaw3NQJ5F8gF9m06y6OKuRxmoYqOYPWitUN1q6hxTQ23tdcmFf3dCjcEC0xtBi0h014B-x4HO2SJpWuf7ppK5qXxaMn740OcK_cZ-GbKysP0XE_qiGUuutXt9KznL8dk7sGMpSsmzSa8pzrw_ZekzwS_pweroBtsW_4N6OLl-5c_C-uVVtVxvClb1Nar-dfTidvlEoK9DJQbceTs_eiZ0JL5qMQAfPdoy_fH-2Z-KBNPmLz-HTlQ2pCyEVlyeNj7nMZk3hVIOPPYK8FFndasHMWlF_0ty1]--></g></svg>